<svg width="38.232mm" height="25.0506mm" version="1.1" viewBox="0 0 38.232 25.0506" xmlns="http://www.w3.org/2000/svg">
	<g transform="translate(-219.73)">
		<path d="m219.773 6.53344v-6.48776h2.68648q0.42034 0 0.76757 0.173616 0.35637 0.173616 0.61222 0.47516 0.25586 0.292406 0.40206 0.657913 0.14621 0.35637 0.14621 0.731015 0 0.529986-0.23758 1.00515-0.22845 0.466022-0.64878 0.758428-0.42034 0.292406-0.98687 0.292406h-2.10166v2.39407zm0.63965-2.96061h2.07424q0.38379 0 0.66706-0.210167 0.28327-0.210167 0.4386-0.548261 0.15535-0.338094 0.15535-0.731015 0-0.402058-0.18276-0.740152-0.18275-0.338094-0.4843-0.529986-0.2924-0.201029-0.64877-0.201029h-2.01942zm5.8135-3.52715h0.53913l2.69562 6.48776h-0.67619l-0.84067-2.02857h-2.91492l-0.83153 2.02857h-0.68532zm1.57169 3.95662-1.30669-3.20733-1.32496 3.20733zm5.97211-2.74131q-0.13707-0.155341-0.31982-0.274131-0.18276-0.127928-0.4112-0.219304-0.22844-0.0913768-0.49343-0.146203-0.25586-0.0548261-0.54827-0.0548261-0.8498 0-1.25186 0.328957-0.39292 0.319819-0.39292 0.877218 0 0.383783 0.18275 0.603087 0.19189 0.219304 0.59395 0.35637t1.02343 0.283268q0.69446 0.146203 1.19703 0.347232 0.50258 0.201029 0.77671 0.548261 0.27412 0.338094 0.27412 0.922906 0 0.447747-0.17361 0.776703-0.17362 0.328956-0.4843 0.548261t-0.74015 0.328957q-0.42947 0.100514-0.94118 0.100514-0.50257 0-0.96859-0.100514-0.45689-0.109652-0.86808-0.310681-0.41121-0.210167-0.76757-0.529986l0.31982-0.520848q0.17362 0.182754 0.41119 0.347232 0.24672 0.155341 0.53912 0.283268 0.30155 0.127928 0.63964 0.201029 0.34724 0.063964 0.71274 0.063964 0.77671 0 1.20618-0.283268 0.43861-0.283268 0.43861-0.840667 0-0.402058-0.21931-0.639638-0.2193-0.246718-0.65791-0.402058-0.43861-0.155341-1.07825-0.301544-0.67618-0.15534-1.1422-0.347232-0.46603-0.191892-0.70361-0.502573-0.22844-0.319819-0.22844-0.840667 0-0.603087 0.2924-1.01428 0.30155-0.420334 0.82239-0.630501 0.52086-0.219304 1.19705-0.219304 0.42946 0 0.79497 0.0913768 0.37465 0.0822392 0.68532 0.246717 0.31982 0.164478 0.59395 0.411196zm5.90207-0.648776h-2.31184v5.92122h-0.63963v-5.92122h-2.31184v-0.566536h5.26331zm0.60536 5.92122v-6.48776h0.63963v6.48776zm1.24222-3.28957q0-0.59395 0.20103-1.16049 0.21017-0.575674 0.60308-1.0417 0.39293-0.47516 0.9686-0.74929 0.57568-0.283268 1.30669-0.283268 0.86808 0 1.4803 0.402058 0.62136 0.39292 0.91377 1.01428l-0.50256 0.310681q-0.21017-0.429471-0.52999-0.676189-0.31983-0.255855-0.68533-0.365507-0.35638-0.109652-0.71274-0.109652-0.58481 0-1.03256 0.23758-0.44775 0.228442-0.75843 0.621363-0.30154 0.383783-0.45688 0.86808-0.15535 0.47516-0.15535 0.968594 0 0.539123 0.18276 1.03256 0.18276 0.493435 0.51171 0.877218 0.32896 0.374645 0.76756 0.603087 0.44775 0.219304 0.9686 0.219304 0.36551 0 0.74929-0.127928 0.38378-0.127928 0.71274-0.39292 0.3381-0.264993 0.53912-0.685326l0.52999 0.274131q-0.20103 0.484297-0.62136 0.822392-0.42034 0.338094-0.94118 0.51171-0.51172 0.173616-1.00515 0.173616-0.66705 0-1.22444-0.283268-0.55741-0.292406-0.9686-0.767566-0.40206-0.484297-0.62136-1.07825-0.21931-0.603087-0.21931-1.21531zm11.2961-3.19819v6.48776h-0.63051v-3.03371h-3.84696v3.03371h-0.63965v-6.48776h0.63965v2.88751h3.84696v-2.88751zm5.10301 5.92122v0.566536h-4.35867v-6.48776h4.27643v0.566536h-3.63679v2.33925h3.17077v0.539124h-3.17077v2.47631z" fill="#333" stroke-linecap="round" stroke-linejoin="round" stroke-width=".1" style="paint-order:stroke fill markers;white-space:pre" aria-label="PASTICHE"/>
		<g>
			<path d="m219.773 7.6897v2.15077c0.83045 0.44828 2.80965 3.72363 4.29535 7.70082v-9.85159z" fill="#37308b" style="-inkscape-stroke:none;paint-order:fill markers stroke"/>
			<path d="m224.069 7.6897v9.85159c0.15124 0.40487 0.29897 0.81475 0.43821 1.23197 1.50706 4.51581 2.36807 6.91446 3.22926 0.35243 0.12291-0.93652 0.34237-1.71801 0.62787-2.35334v-9.08265z" fill="#1963b0" style="-inkscape-stroke:none;paint-order:fill markers stroke"/>
			<path d="m228.364 7.6897v9.08265c0.97869-2.17795 2.75748-2.57447 4.29535-1.09554v-7.98711z" fill="#2490c4" style="-inkscape-stroke:none;paint-order:fill markers stroke"/>
			<path d="m232.659 7.6897v7.98711c1.15687 1.11253 2.17644 3.28157 2.61224 6.5536 0.43521 3.2676 0.57327 3.05228 1.6831 1.35134v-15.8921z" fill="#53a571" style="-inkscape-stroke:none;paint-order:fill markers stroke"/>
			<path d="m236.955 7.6897v15.8921c0.78725-1.20654 2.06313-3.15363 4.29535-5.16764v-10.7244z" fill="#bdc12a" style="-inkscape-stroke:none;paint-order:fill markers stroke"/>
			<path d="m241.25 7.6897v10.7244c1.15356-1.04081 2.57004-2.09196 4.29534-3.0639v-7.66051z" fill="#fccd1d" style="-inkscape-stroke:none;paint-order:fill markers stroke"/>
			<path d="m245.545 7.6897v7.66051c1.25838-0.7089 2.67458-1.37596 4.29535-1.95905v-5.70146z" fill="#fbb126" style="-inkscape-stroke:none;paint-order:fill markers stroke"/>
			<path d="m249.841 7.6897v5.70146c1.30234-0.46853 2.73041-0.88433 4.29534-1.22783v-4.47363z" fill="#f67916" style="-inkscape-stroke:none;paint-order:fill markers stroke"/>
			<path d="m254.136 7.6897v4.47363c1.18502-0.26011 2.44669-0.47979 3.79512-0.64854l-0.0243-3.82509z" fill="#e1452e" style="-inkscape-stroke:none;paint-order:fill markers stroke"/>
		</g>
		<path d="m219.773 7.68987h38.1338" fill="none" stop-color="#000000" stroke="#333" stroke-linejoin="round" stroke-width=".5" style="font-variation-settings:normal;paint-order:fill markers stroke"/>
		<path d="m219.773 9.84047c0.64056 0.08185 3.22646 4.41672 4.73351 8.93253 1.50706 4.51581 2.36823 6.91483 3.22942 0.3528 0.86117-6.56204 6.35117-5.78588 7.53529 3.10462 1.18412 8.89049 0.10765-7.89329 22.6597-10.7157" fill="none" stop-color="#000000" stroke="#333" stroke-linejoin="round" stroke-width=".5" style="font-variation-settings:normal;paint-order:fill markers stroke"/>
	</g>
</svg>
